<svg id="Persona_vectorizada" data-name="Persona vectorizada" xmlns="http://www.w3.org/2000/svg" xmlns:xlink="http://www.w3.org/1999/xlink" width="189" height="141.7" viewBox="0 0 1890 1417">
  <defs>
    <style>
      .cls-1, .cls-10, .cls-11, .cls-12, .cls-13, .cls-14, .cls-15, .cls-16, .cls-17, .cls-18, .cls-19, .cls-2, .cls-20, .cls-21, .cls-22, .cls-23, .cls-24, .cls-25, .cls-26, .cls-3, .cls-4, .cls-5, .cls-6, .cls-7, .cls-8, .cls-9 {
        fill-rule: evenodd;
      }

      .cls-1 {
        fill: url(#linear-gradient);
      }

      .cls-10, .cls-11, .cls-12, .cls-13, .cls-14, .cls-15, .cls-16, .cls-17, .cls-18, .cls-19, .cls-2, .cls-20, .cls-21, .cls-22, .cls-23, .cls-24, .cls-25, .cls-26, .cls-3, .cls-4, .cls-5, .cls-6, .cls-7, .cls-8, .cls-9 {
        stroke: #000;
        stroke-width: 1px;
      }

      .cls-2 {
        fill: url(#linear-gradient-2);
      }

      .cls-3 {
        fill: url(#linear-gradient-3);
      }

      .cls-4 {
        fill: #fcff3e;
      }

      .cls-5 {
        fill: #b7afa2;
      }

      .cls-6 {
        fill: #1b47ac;
      }

      .cls-7 {
        fill: #d0d3da;
      }

      .cls-8 {
        fill: none;
      }

      .cls-9 {
        fill: #efaa61;
      }

      .cls-10 {
        fill: #586b8f;
      }

      .cls-11 {
        fill: #e69661;
      }

      .cls-12, .cls-13 {
        fill: #fefdfc;
      }

      .cls-13, .cls-16 {
        opacity: 0.4;
      }

      .cls-14 {
        fill: #404a68;
      }

      .cls-15 {
        fill: #f5dcc8;
      }

      .cls-16, .cls-19 {
        fill: #322d29;
      }

      .cls-18 {
        fill: #ff610f;
      }

      .cls-20 {
        fill: #ff551c;
      }

      .cls-21 {
        fill: #df3a16;
      }

      .cls-22 {
        fill: #d50600;
      }

      .cls-23 {
        fill: #ff733b;
      }

      .cls-24 {
        fill: #9d9e9e;
      }

      .cls-25 {
        fill: #e43d1a;
      }

      .cls-26 {
        fill: #404242;
      }
    </style>
    <linearGradient id="linear-gradient" x1="1270.702" y1="855.625" x2="1270.702" y2="648.031" gradientUnits="userSpaceOnUse">
      <stop offset="0"/>
      <stop offset="1" stop-color="#ff6020"/>
    </linearGradient>
    <linearGradient id="linear-gradient-2" x1="653.063" y1="852.562" x2="653.063" y2="642.5" xlink:href="#linear-gradient"/>
    <linearGradient id="linear-gradient-3" x1="389.078" y1="856.688" x2="389.078" y2="649.375" xlink:href="#linear-gradient"/>
  </defs>
  <path id="RR_LLO" data-name="RR LLO" class="cls-1" d="M779,851.51q7.331,0,31.824.293,0.432-41.6,1.877-84.814t3.323-73.243q7.323-.144,12.817-0.366t10.621-.22q15.086,0,22.338,2.344t10.62,7.105a18.661,18.661,0,0,1,3.37,11.059,25.3,25.3,0,0,1-4.468,14.209,26.078,26.078,0,0,1-13.184,9.961,55.591,55.591,0,0,1-19.407,3.223A85.11,85.11,0,0,1,823.2,739.6l15.1,41.455Q845.2,799.8,848.718,810.2q1.758,4.69,4.253,13.331,6.159,20.654,8.5,28.271,24-.293,34.547-0.293,8.343,0,32.5.293-3.372-8.2-4.687-10.986L904.2,797.9q-3.664-8.055-6.885-15.821l-7.617-18.6q14.646-5.713,22.778-11.206a51.955,51.955,0,0,0,13.476-13.037,53.613,53.613,0,0,0,7.837-16.113,65.609,65.609,0,0,0,2.491-18.384,57.964,57.964,0,0,0-2.271-16.48,44.331,44.331,0,0,0-6.372-13.4,47.691,47.691,0,0,0-10.252-10.327,57.293,57.293,0,0,0-15.158-7.837,81.893,81.893,0,0,0-19.991-4.248q-14.646-1.462-33.394-1.465-15.965,0-32.808.659t-28.559.659q-11.279,0-29.586-.439,0,17.873-.588,48.12t-1.762,57.5q-1.174,27.246-2.79,47.9T748.344,851.8q22.144-.293,30.652-0.293h0Zm201.415,0q7.331,0,31.819.293,0.435-41.6,1.88-84.814t3.33-73.243q7.32-.144,12.81-0.366t10.62-.22q15.09,0,22.34,2.344c4.84,1.563,8.37,3.932,10.62,7.105a18.633,18.633,0,0,1,3.37,11.059,25.285,25.285,0,0,1-4.47,14.209,26.063,26.063,0,0,1-13.18,9.961,55.6,55.6,0,0,1-19.41,3.223,85,85,0,0,1-15.52-1.465l15.1,41.455q6.885,18.753,10.41,29.15c1.18,3.127,2.59,7.57,4.26,13.331q6.15,20.654,8.5,28.271,24-.293,34.55-0.293,8.34,0,32.49.293-3.36-8.2-4.68-10.986l-19.63-42.92q-3.66-8.055-6.89-15.821l-7.61-18.6q14.64-5.713,22.78-11.206a52.008,52.008,0,0,0,13.47-13.037,53.456,53.456,0,0,0,7.84-16.113,65.61,65.61,0,0,0,2.49-18.384,58.071,58.071,0,0,0-2.27-16.48,44.518,44.518,0,0,0-6.37-13.4,47.71,47.71,0,0,0-10.26-10.327,57.315,57.315,0,0,0-15.15-7.837,81.945,81.945,0,0,0-19.99-4.248q-14.655-1.462-33.4-1.465-15.96,0-32.81.659t-28.557.659q-11.277,0-29.585-.439,0,17.873-.588,48.12t-1.762,57.5q-1.174,27.246-2.79,47.9T949.759,851.8q22.145-.293,30.652-0.293h0Zm327,0q34.86,0,73.39.293l3.22-44.238q-19.785,1.026-58.32,1.025-7.62,0-32.83-.439l0.59-20.362,4.41-82.91,3.53-53.027q-19.455.3-29.86,0.293-15.36,0-35.27-.293,0,25.049-1.55,64.38t-4.63,79.174q-1.62,21.83-5.3,56.4,35.445-.293,82.62-0.293h0Zm166.84,0q34.86,0,73.39.293l3.22-44.238q-19.785,1.026-58.32,1.025-7.62,0-32.83-.439l0.59-20.362,4.42-82.91,3.53-53.027q-19.47.3-29.86,0.293-15.375,0-35.28-.293,0,25.049-1.55,64.38t-4.63,79.174q-1.62,21.83-5.3,56.4,35.46-.293,82.62-0.293h0Zm137.54-189.844q-29.22,13.623-44.09,37.866t-14.87,56.324q0,21.828,7.03,39.7T1583.67,828a102.331,102.331,0,0,0,39.47,21.094,171.244,171.244,0,0,0,47.46,6.519,173.382,173.382,0,0,0,48.2-6.665q23.145-6.664,39.84-21.021a94.97,94.97,0,0,0,25.56-34.936,113.04,113.04,0,0,0,8.87-45.191q0-23.434-8.06-41.455a89.8,89.8,0,0,0-24.32-31.86,101.388,101.388,0,0,0-37.94-20.142,160.892,160.892,0,0,0-45.11-6.3Q1641.01,648.043,1611.79,661.666Zm91.92,37.793a47.76,47.76,0,0,1,19.34,20.581,64.136,64.136,0,0,1,6.59,28.931,70.046,70.046,0,0,1-7.11,30.835,52.677,52.677,0,0,1-20.65,22.852,56.856,56.856,0,0,1-29.81,8.129,60.538,60.538,0,0,1-28.86-7.251,47.041,47.041,0,0,1-20.29-20.141,60.975,60.975,0,0,1-6.66-28.418,69.938,69.938,0,0,1,7.32-31.567,54.974,54.974,0,0,1,20.95-23,57.542,57.542,0,0,1,30.47-8.276A56.6,56.6,0,0,1,1703.71,699.459Z"/>
  <path id="A" class="cls-2" d="M637.912,642.5a271.643,271.643,0,0,1,29.072,1.06c23.441,68.939,49.422,137.877,76.135,208.777-10.629.546-23.2-.13-35.5,0.159-11.617,0-23.234,0-35.311-1.118a372.128,372.128,0,0,0-20.662-57.166c-24.994-.253-62.591,1.1-88.641.788-0.352.177,1.548-1.873,5-8,4.175-9.425,16.442-24.547,24-39,15.137,0.622,32.887.351,49.558-.5-5.407-17.323-10.892-34.646-17-53.029-4.639-8.485,1.943-16.97,4.088-26.605C631.355,659.562,633.907,649.562,637.912,642.5Z"/>
  <path id="C" class="cls-3" d="M405.5,649.705c23.667-.977,47.333-0.036,71.76,4.795,0.215,14.333.714,28.667,2.24,44-0.333.667,0.833,2.833-2,2.043-26.333-5.806-52.667-10.837-79.974.932-13.749,6.195-22.9,16.137-30.059,31.025a68.485,68.485,0,0,0-2.335,45.543c8.9,16.673,14.864,25.191,40.368,32.49,22.333,2.935,44.167,10.574,67.5,4.467,0.667,0.333,1.029,8.167,0,11-2.467,14.333-2.66,9.167-3.755,25.323a214.332,214.332,0,0,1-54.979,4.765c-29.407,3.863-70.047-10.983-82.654-23.469C318.3,820.366,308.64,812.865,301.47,783.5c-4.228-17.667-3.369-35.333.394-53.621,9.46-31.6,19.257-40.167,35.1-54.621,9.066-6.03,14.076-10.165,28.532-15.979C378.833,653.765,392.167,651.613,405.5,649.705Z"/>
  <path id="Chaleco" class="cls-4" d="M1209,736c0.85-6.708.73-31.417,1-30s4.51-17.229,5-19c-2.26-4.134,12.27-21.538,4-29-4.81-5.958-3.58-7.57-10-12-5.34,1-7.78-.347-9,0-9.71,1.02-13.94-6.053-15-6-3.8,1.855-7.94,4.171-9.36,5.761,2.56,2.738,21.82,48.27-4.64,31.239,1.7,4.674-11.84,10.379-11,11,0.56,3.083-.81,9.532-3,14s-2.85,26.025-3,27,7.13-3.28,11-3C1172.26,720.812,1184.94,742.175,1209,736Z"/>
  <path id="chaleco_gris1_copia" data-name="chaleco gris1 copia" class="cls-5" d="M1213,696c-4.51-.184-13.04,1.186-20-2,6.36-16.976-9-53-9-53s-0.32-1.315-4,2c3.59,4.42,14.37,49.921,7,49s-20.87-7.478-21-7c-0.64,2.34-9.33,5.28-5,7,6.64,2.633,42.6,15.092,50,11C1213.79,702.76,1212.72,696.276,1213,696Z"/>
  <path id="chaleco_gris1" data-name="chaleco gris1" class="cls-5" d="M1211,724l-1-8-53.06-14c0.41,0-2.92,8.08-1.94,9C1156,711.938,1211,724,1211,724Z"/>
  <path id="chaleco_azul" data-name="chaleco azul" class="cls-6" d="M1210,736c0.29-1.85,0-12,0-12l-55-12c0.41,0-1,15.959-1,17-0.39,3.635-1.07,6.718,1,7,2.94,0.4,8-5,8-5l1.41-.837s0.78-6.034,1.59-5.163C1172.16,722.677,1190.04,742.606,1210,736Z"/>
  <path id="chaleco_azul_2" data-name="chaleco azul 2" class="cls-6" d="M1210,716s1.34-12.493,1-13c-2.72,5.007-48.98-12.12-51-11s-3,10-3,10Z"/>
  <path id="brazo" class="cls-7" d="M1184,680c4.71-3.094-.08-23.538-8-34-7.41,2.138-15.91,26.872-23,26-6.05-1.363-11-11-11-11h-8s0.05,0.1.14,0.3c-0.84,11.115,10.48,29.708,24.86,27.7,5.2-.274,10.03-7.635,11.55-7.629C1176.61,675.267,1178.74,683.668,1184,680Z"/>
  <path id="brazo_triangulo" data-name="brazo triangulo" class="cls-8" d="M1185,680c0.03-2.021,1.34-11.561,0-11-2.12.43-10.98,9.269-11,10C1176.05,681.266,1184.44,682.213,1185,680Z"/>
  <path id="mano_izq" data-name="mano izq" class="cls-9" d="M1142,660c-0.19-.322-8.85-15.657-10-17-2.12.43,2.7,15.737,2,17C1133.58,661.609,1141.57,660.43,1142,660Z"/>
  <path id="cel" class="cls-10" d="M1145,656l-12-20h-6l15,24,3.77-3.08Z"/>
  <path id="mano_der" data-name="mano der" class="cls-9" d="M1161,664c-0.04-.073,4.44-1.92,3-4a62.875,62.875,0,0,1-11-6c-10.17-4.136-12.2-3.107-12-3-0.44,1.323,3.21,4.871,4,5,0.33,0.054,6.01,1.264,6,2-0.01,1.018-5.53.616-6,2C1144.58,661.609,1160.57,664.43,1161,664Z"/>
  <path id="cuello" class="cls-7" d="M1195,647c-0.04-.073,12.11,1.887,15-1-0.18-1.555-3.12-5.8-5-6a139.674,139.674,0,0,0-20-1l3,4S1194.57,647.43,1195,647Z"/>
  <path id="cara" class="cls-11" d="M1206,636l-5-2-1-13-12-5s-12.12,19.325-6,20c0.3,0.422.89,1.211,3,1a10.117,10.117,0,0,0,1,2h19Z"/>
  <path id="casco" class="cls-12" d="M1219,608a20.989,20.989,0,0,0-19-8c-3.25,0-12.58,10.481-13,12-0.84-1.266-4.95-2.338-6-2-1.94,1.308,6,5,6,5l11,5,16,10S1225.54,614.709,1219,608Z"/>
  <path id="casco_2" data-name="casco 2" class="cls-13" d="M1213,629l-12-7v5l7,8Z"/>
  <path id="Pantalon" class="cls-14" d="M1163,832c-0.65,1.294,3.51,6.3,5,7s10.11,7.185,12,4c2.48,0.1,1.86-7.934,2-6s1.94-13.945,2-18,0.37-54.94,3-55,1.83-.286,3,3,2.37,15.427,1,17c1.18,3.015,4.31,3.572,5,7,4.06,3.091,8.29,40.7,4,43-1.25,2.107,1,6,1,6s14.71,0.431,14,0c-0.05,1.454.97-5.88-2-8-1.96-2.866,1.15-12.4,1-18s2.63-11.339-2-27-4.84-32.478-5-34c-0.64,1.722,2.14-17.747,2-17-20.78,5.542-38.59-16.944-44-10-0.3,1.894-1.74,55.852,0,62,2.93,4.7,2.97,3.476,3,4,1.51,0.1-3.54,36.468-3,38C1163.89,831.383,1163.65,830.706,1163,832Z"/>
  <path id="Pie_izq" data-name="Pie izq" class="cls-15" d="M1180,843c-3.14,1.016-15.46-7.324-16-12-10.29,6.421-29.87,10.136-24,13,3.12,2.483,11.34,5.108,22,4C1167.1,847.431,1181.68,851.3,1180,843Z"/>
  <path id="Pie_der" data-name="Pie der" class="cls-15" d="M1215,840c-4.1-.438-14.46-2.324-15-7-6.92,7.823-14.64,6.264-17.17,10.086-0.53,1.989,6.59,6,16.17,4.914C1204.1,847.431,1219.34,852.132,1215,840Z"/>
  <path id="pelo" class="cls-16" d="M1209,634l-9-7v7l6,3Z"/>
  <g id="Llanta3">
    <path id="ring_int_copia" data-name="ring int copia" class="cls-8" d="M398,942c2.692-.245,11.163,3.313,11,14s-5.126,14.326-11,14-11.429-4.211-12-14S394.329,942.326,398,942Z"/>
    <path id="ring_sup_copia" data-name="ring sup copia" class="cls-8" d="M399.636,927.228c3.967-.259,19.087,4.24,20.812,23.777,1.926,21.821-7.371,33.676-22,33.091s-25.419-12.2-23.312-32.938C377.025,932.576,394.206,927.572,399.636,927.228Z"/>
    <path id="llanta_copia" data-name="llanta copia" class="cls-17" d="M401.783,912.079c4.162,0.016,25.243,4.646,30.6,30.359,6.989,33.531-7.3,58.282-35.508,53.71-27.951-4.528-40.122-30.377-31.386-58.559C372.471,915.071,395.47,912.047,401.783,912.079Z"/>
  </g>
  <g id="Llanta1">
    <path id="ring_int_copia_3" data-name="ring int copia 3" class="cls-8" d="M546,941c2.692-.245,11.163,3.313,11,14s-5.127,14.326-11,14-11.429-4.211-12-14S542.329,941.326,546,941Z"/>
    <path id="ring_sup_copia_3" data-name="ring sup copia 3" class="cls-8" d="M547.636,926.228c3.967-.259,19.087,4.24,20.812,23.777,1.926,21.821-7.371,33.676-22,33.091s-25.419-12.2-23.312-32.938C525.025,931.576,542.206,926.572,547.636,926.228Z"/>
    <path id="llanta_copia_3" data-name="llanta copia 3" class="cls-17" d="M549.783,911.079c4.162,0.016,25.243,4.646,30.6,30.359,6.989,33.531-7.3,58.281-35.508,53.71-27.951-4.528-40.122-30.377-31.386-58.559C520.471,914.071,543.47,911.047,549.783,911.079Z"/>
  </g>
  <path id="brazo3" class="cls-17" d="M489,468l99-97h6l49-48h17V426h-8s0.176-69.051,0-84c-0.022-1.873,0-3,0-3h-3l-46,47-1.515,5.757L511,488Z"/>
  <path id="Forma_2" data-name="Forma 2" class="cls-4" d="M712,373"/>
  <path id="brozo_1" data-name="brozo 1" class="cls-17" d="M480,806L586,701l10,8L483,822l4,4L602,712l31,18L521,840s-18.984,22.312-20,22c-7.7-1.637-22.1-12.554-22-24-13.571-14.2-28.01-27.636-32-30C448.094,808.312,480,806,480,806Z"/>
  <path id="codo1" class="cls-18" d="M585,701V672l46-30h14l1,84-4,5H632Z"/>
  <path id="codo1_copia" data-name="codo1 copia" class="cls-18" d="M521,519V498l-36-32H461l-1,85,4,4Z"/>
  <path id="brazo2" class="cls-17" d="M473,550s6.371-5.365,10.89-9.036C487.17,538.3,521,520,521,520c-2.342-2.2,110.039,123.048,110,123l-27,17S492.751,540.709,493,541c-1.657-2.147-9.323,2.05-6,5,0.955,0.291,109,119,109,119l-10,7Z"/>
  <path id="Elipse_1" data-name="Elipse 1" class="cls-19" d="M591.5,684a3.036,3.036,0,1,1-3.5,3A3.279,3.279,0,0,1,591.5,684Z"/>
  <path id="Elipse_1_copia" data-name="Elipse 1 copia" class="cls-19" d="M623.5,653a3.036,3.036,0,1,1-3.5,3A3.279,3.279,0,0,1,623.5,653Z"/>
  <path id="Elipse_1_copia_2" data-name="Elipse 1 copia 2" class="cls-19" d="M623.5,716a3.036,3.036,0,1,1-3.5,3A3.279,3.279,0,0,1,623.5,716Z"/>
  <path id="base_top_negro" data-name="base top negro" class="cls-17" d="M355,900V841s-0.305-23.755,15-30a63.332,63.332,0,0,1,22-4c0.316,0.281,0,81,0,81l143-1v12Z"/>
  <path id="base_top_naranja_1" data-name="base top naranja 1" class="cls-20" d="M392,887l-1-80s37.773,0.172,40,0c2.085-.454,72.978,55.729,39.741,80.188C444.3,887.868,392,887,392,887Z"/>
  <path id="base_top_naranja_2" data-name="base top naranja 2" class="cls-21" d="M471.44,887.083C502.772,866.771,433.94,802.044,425,807c0.354,0,18.914.453,21,0,0.349-.076,13.538,11.2,23.151,20.351,5.162,4.915,9.292,8.93,9.849,9.649,1.394,13.009,16.358,23.4,22,23,2.057-.066,18.517-22.523,18.517-22.523S543.021,859.991,536,886C527.707,888.113,470.614,888.558,471.44,887.083Z"/>
  <path id="cuadro_naranja" data-name="cuadro naranja" class="cls-22" d="M402,880l1-62,24,1,1,62Z"/>
  <path id="cuadro_negro_naranja" data-name="cuadro negro naranja" class="cls-17" d="M408,840V827h13v13H408Z"/>
  <path id="cuadro_negro_naranja_copia" data-name="cuadro negro naranja copia" class="cls-17" d="M406.085,854L406,847l17,0.257,0.085,7Z"/>
  <path id="cuadro_negro_naranja_copia_2" data-name="cuadro negro naranja copia 2" class="cls-17" d="M406.085,863L406,856l17,0.257,0.085,7Z"/>
  <path id="base_body" data-name="base body" class="cls-23" d="M598,968c-0.432.37-17,0-17,0l-57,2s14.159-43.734-35-53c-37.514,2.722-34,52-34,52l-22,1H376s8.314-48.234-36-52c-36.791,1.9-35,51-35,51s-16.447-.409-16,0-3.739-19.217,10-41c8.293-9.654,12.268-19.667,33.185-27.712C338.745,899.669,355,898,355,898H536l17-1s30.979,17.737,33,24c2.926,4.5,13.253,26.237,14,29S600.145,966.618,598,968Z"/>
  <g id="Llanta4">
    <path id="llanta" class="cls-17" d="M343.783,916.079c4.162,0.016,25.243,4.646,30.6,30.359,6.989,33.531-7.3,58.282-35.508,53.712-27.951-4.53-40.122-30.379-31.386-58.561C314.471,919.071,337.47,916.047,343.783,916.079Z"/>
    <path id="ring_sup" data-name="ring sup" class="cls-24" d="M341.636,931.228c3.967-.259,19.087,4.24,20.812,23.777,1.926,21.821-7.371,33.676-22,33.091s-25.419-12.2-23.312-32.938C319.025,936.576,336.206,931.572,341.636,931.228Z"/>
    <path id="ring_int" data-name="ring int" class="cls-17" d="M340,946c2.692-.245,11.163,3.313,11,14s-5.127,14.326-11,14-11.429-4.211-12-14S336.329,946.326,340,946Z"/>
    <path id="Forma_4" data-name="Forma 4" class="cls-25" d="M500,899s57.543,25.389,40,69c4.142,3.167,37.071-.975,59,0,14.132-47.51-46-70-46-70Z"/>
  </g>
  <g id="Llanta2">
    <path id="llanta_copia_2" data-name="llanta copia 2" class="cls-17" d="M491.783,916.079c4.162,0.016,25.243,4.646,30.6,30.359,6.989,33.531-7.3,58.282-35.508,53.712-27.951-4.53-40.122-30.379-31.386-58.561C462.471,919.071,485.47,916.047,491.783,916.079Z"/>
    <path id="ring_sup_copia_2" data-name="ring sup copia 2" class="cls-24" d="M489.636,931.228c3.967-.259,19.087,4.24,20.812,23.777,1.926,21.821-7.371,33.676-22,33.091s-25.419-12.2-23.312-32.938C467.025,936.576,484.206,931.572,489.636,931.228Z"/>
    <path id="ring_int_copia_2" data-name="ring int copia 2" class="cls-17" d="M488,946c2.692-.245,11.163,3.313,11,14s-5.127,14.326-11,14-11.429-4.211-12-14S484.329,946.326,488,946Z"/>
  </g>
  <path id="Elipse_1_codo2" data-name="Elipse 1 codo2" class="cls-19" d="M468.5,538a3.036,3.036,0,1,1-3.5,3A3.279,3.279,0,0,1,468.5,538Z"/>
  <path id="Elipse_1_codo2_copia" data-name="Elipse 1 codo2 copia" class="cls-19" d="M500.5,506a3.036,3.036,0,1,1-3.5,3A3.279,3.279,0,0,1,500.5,506Z"/>
  <path id="Elipse_1_codo2_copia_2" data-name="Elipse 1 codo2 copia 2" class="cls-19" d="M468.5,475a3.036,3.036,0,1,1-3.5,3A3.279,3.279,0,0,1,468.5,475Z"/>
  <g id="Grupo_1" data-name="Grupo 1">
    <path id="canasta" class="cls-18" d="M784,314l2,2v7l-2,2v41h2v8h-2v74l-2,4H771l-1-138h14Z"/>
    <path id="canasta_copia" data-name="canasta copia" class="cls-18" d="M688,424V325h9v40h8V325h7v99h-7V375h-7v49H688Z"/>
    <path id="canasta_3" data-name="canasta 3" class="cls-18" d="M784,366h2v8h-2l-163.33.627-0.15-8.866Z"/>
    <path id="canasta_1" data-name="canasta 1" class="cls-18" d="M620,326l-1-2v-7l3-3H784l2,2v7Z"/>
    <path id="canasta_4" data-name="canasta 4" class="cls-18" d="M619,324v-7l3-3h8V453h-6l-3-2V424.1C621,346.73,619,324,619,324Z"/>
    <path id="canasta_2" data-name="canasta 2" class="cls-18" d="M784,424.31V448l-2,4H766l-3,8H655l-5-4v-3H624l-3-2V424.1Z"/>
    <path id="canasta_2_copia" data-name="canasta 2 copia" class="cls-17" d="M766,452v3c0,1.8-3,5-3,5H655l-5-4v-3Z"/>
  </g>
  <path id="Gris" class="cls-26" d="M375,819c0,14.807.926,63.641,1,69,0.44,0.22-8.628,1.812-15,2S355.133,817.688,375,819Z"/>
</svg>
